<svg width="152" height="199" viewBox="0 0 152 199" fill="none" xmlns="http://www.w3.org/2000/svg">
<circle cx="76.0706" cy="76.4501" r="75.8099" fill="url(#paint0_linear_3_127)"/>
<path fill-rule="evenodd" clip-rule="evenodd" d="M78.9062 28.6226V37.1589L87.4227 37.1589C88.8034 37.1589 89.9227 38.2781 89.9227 39.6589C89.9227 41.0396 88.8034 42.1589 87.4227 42.1589H78.9062V57.4899L115.561 89.6669C117.429 91.3064 117.614 94.1497 115.974 96.0174C114.335 97.8851 111.492 98.0701 109.624 96.4306L76.4152 67.279L42.5173 97.038C40.6497 98.6777 37.8064 98.4928 36.1668 96.6251C34.5272 94.7574 34.712 91.9142 36.5797 90.2746L73.9062 57.5055V42.1589H65.3896C64.0089 42.1589 62.8896 41.0396 62.8896 39.6589C62.8896 38.2781 64.0089 37.1589 65.3896 37.1589L73.9062 37.1589V28.6226C73.9062 27.2419 75.0254 26.1226 76.4062 26.1226C77.7869 26.1226 78.9062 27.2419 78.9062 28.6226ZM104.967 97.0568L76.0705 72.072L47.1736 97.0568H47.089V116.778C47.089 122.3 51.5661 126.778 57.089 126.778H66.537V114.961C66.537 109.696 70.8053 105.428 76.0706 105.428C81.3359 105.428 85.6042 109.696 85.6042 114.961V126.778H95.0522C100.575 126.778 105.052 122.3 105.052 116.778V97.0568H104.967Z" fill="white"/>
<path d="M11.1384 161.772H20.222C24.0134 161.772 26.8438 162.549 28.7131 164.102C30.5825 165.63 31.5172 167.854 31.5172 170.777C31.5172 173.726 30.5957 176.016 28.7526 177.649C26.9096 179.281 24.224 180.097 20.6959 180.097H16.3516V189.26H11.1384V161.772ZM20.2615 175.556C22.2362 175.556 23.6843 175.2 24.6058 174.489C25.5536 173.778 26.0276 172.58 26.0276 170.895C26.0276 169.263 25.5668 168.105 24.6453 167.42C23.7238 166.735 22.2493 166.393 20.222 166.393H16.3516V175.556H20.2615ZM38.6717 165.564C37.7766 165.564 37.013 165.261 36.3811 164.655C35.7492 164.05 35.4333 163.26 35.4333 162.286C35.4333 161.312 35.7492 160.522 36.3811 159.916C37.013 159.311 37.7766 159.008 38.6717 159.008C39.5669 159.008 40.3305 159.311 40.9624 159.916C41.5943 160.522 41.9102 161.312 41.9102 162.286C41.9102 163.26 41.5943 164.05 40.9624 164.655C40.3305 165.261 39.5669 165.564 38.6717 165.564ZM41.2783 168.644V189.26H36.0652V168.684L41.2783 168.644ZM47.1342 159.482H52.3474V189.26H47.1342V159.482ZM77.8712 168.644L77.0023 173.186V189.26C77.0023 192.393 76.0808 194.776 74.2377 196.408C72.3947 198.067 69.8803 198.896 66.6944 198.896C65.0094 198.896 63.4954 198.673 62.1526 198.225C60.8099 197.778 59.5197 197.172 58.2823 196.408V191.511C60.7572 193.407 63.4164 194.355 66.26 194.355C69.9461 194.355 71.7891 192.656 71.7891 189.26V187.641C70.1567 188.536 68.3663 188.984 66.418 188.984C63.6534 188.984 61.4681 188.075 59.862 186.258C58.2823 184.415 57.4924 181.888 57.4924 178.676C57.4924 175.411 58.3218 172.844 59.9805 170.974C61.6656 169.105 63.943 168.17 66.8129 168.17C67.7344 168.17 68.6165 168.276 69.459 168.486C70.3015 168.671 71.302 169 72.4605 169.474L72.658 168.644H77.8712ZM66.6154 184.481C68.2742 184.481 69.9987 183.955 71.7891 182.902V173.028C71.1046 172.817 70.42 172.686 69.7355 172.633C69.0772 172.58 68.2742 172.554 67.3263 172.554C65.7992 172.554 64.6934 173.041 64.0089 174.015C63.3243 174.99 62.982 176.543 62.982 178.676C62.982 180.703 63.2716 182.177 63.8509 183.099C64.4301 184.021 65.3516 184.481 66.6154 184.481ZM94.2657 168.17V173.305H93.5943C91.5406 173.305 89.8687 173.871 88.5786 175.003V189.26H83.3654V173.226L82.4966 168.644H87.7097L88.2232 171.369C89.092 170.185 89.8819 169.355 90.5928 168.881C91.3037 168.407 92.0936 168.17 92.9624 168.17H94.2657ZM101.885 165.564C100.99 165.564 100.226 165.261 99.5943 164.655C98.9624 164.05 98.6464 163.26 98.6464 162.286C98.6464 161.312 98.9624 160.522 99.5943 159.916C100.226 159.311 100.99 159.008 101.885 159.008C102.78 159.008 103.544 159.311 104.176 159.916C104.807 160.522 105.123 161.312 105.123 162.286C105.123 163.26 104.807 164.05 104.176 164.655C103.544 165.261 102.78 165.564 101.885 165.564ZM104.492 168.644V189.26H99.2783V168.684L104.492 168.644ZM134.478 168.17C136.453 168.17 138.033 168.789 139.217 170.027C140.428 171.238 141.034 172.844 141.034 174.845V189.26H135.821V177.807C135.821 176.016 135.584 174.739 135.11 173.976C134.636 173.186 133.846 172.791 132.74 172.791C131.398 172.791 130.015 173.541 128.594 175.042V189.26H123.38V177.807C123.38 176.016 123.143 174.739 122.669 173.976C122.196 173.186 121.406 172.791 120.3 172.791C118.957 172.791 117.575 173.541 116.153 175.042V189.26H110.94V173.226L110.071 168.644H114.85L115.6 171.29C116.653 170.185 117.693 169.395 118.72 168.921C119.747 168.42 120.853 168.17 122.038 168.17C123.354 168.17 124.512 168.473 125.513 169.079C126.54 169.658 127.317 170.461 127.843 171.488C128.949 170.303 130.015 169.46 131.042 168.96C132.095 168.434 133.241 168.17 134.478 168.17Z" fill="url(#paint1_linear_3_127)"/>
<defs>
<linearGradient id="paint0_linear_3_127" x1="0.26062" y1="76.4501" x2="151.88" y2="76.4501" gradientUnits="userSpaceOnUse">
<stop offset="0.102446" stop-color="#6CF0D8"/>
<stop offset="1" stop-color="#E9D238"/>
</linearGradient>
<linearGradient id="paint1_linear_3_127" x1="7.07056" y1="175.76" x2="145.071" y2="175.76" gradientUnits="userSpaceOnUse">
<stop stop-color="#6CF0D8"/>
<stop offset="1" stop-color="#E9D238"/>
</linearGradient>
</defs>
</svg>
