<svg width="152" height="152" viewBox="0 0 152 152" fill="none" xmlns="http://www.w3.org/2000/svg">
<circle cx="76.0706" cy="75.8202" r="75.8099" fill="url(#paint0_linear_3_63)"/>
<path fill-rule="evenodd" clip-rule="evenodd" d="M78.9062 27.9927V36.529L87.4227 36.529C88.8034 36.529 89.9227 37.6483 89.9227 39.029C89.9227 40.4097 88.8034 41.529 87.4227 41.529H78.9062V56.86L115.561 89.037C117.429 90.6765 117.614 93.5198 115.974 95.3875C114.335 97.2553 111.492 97.4402 109.624 95.8007L76.4152 66.6491L42.5173 96.4081C40.6497 98.0478 37.8064 97.8629 36.1668 95.9952C34.5272 94.1276 34.712 91.2843 36.5797 89.6447L73.9062 56.8757V41.529H65.3896C64.0089 41.529 62.8896 40.4097 62.8896 39.029C62.8896 37.6483 64.0089 36.529 65.3896 36.529L73.9062 36.529V27.9927C73.9062 26.612 75.0254 25.4927 76.4062 25.4927C77.7869 25.4927 78.9062 26.612 78.9062 27.9927ZM104.967 96.4269L76.0705 71.4421L47.1736 96.4269H47.089V116.148C47.089 121.671 51.5661 126.148 57.089 126.148H66.537V114.331C66.537 109.066 70.8053 104.798 76.0706 104.798C81.3358 104.798 85.6042 109.066 85.6042 114.331V126.148H95.0522C100.575 126.148 105.052 121.671 105.052 116.148V96.4269H104.967Z" fill="white"/>
<defs>
<linearGradient id="paint0_linear_3_63" x1="0.26062" y1="75.8202" x2="151.88" y2="75.8202" gradientUnits="userSpaceOnUse">
<stop offset="0.102446" stop-color="#6CF0D8"/>
<stop offset="1" stop-color="#E9D238"/>
</linearGradient>
</defs>
</svg>
